<svg width="948" height="948" viewBox="0 0 948 948" fill="none" xmlns="http://www.w3.org/2000/svg">
<circle cx="474" cy="474" r="474" fill="white"/>
<path d="M270.33 212.87C275.443 202.945 278 197.983 281.91 195.176C285.206 192.81 289.144 191.502 293.201 191.426C298.014 191.336 303.031 193.783 313.066 198.676L337.229 210.458C347.467 215.45 352.585 217.946 355.495 221.87C357.946 225.177 359.318 229.159 359.423 233.274C359.547 238.157 357.051 243.276 352.059 253.514L207.368 550.245C201.467 562.347 198.516 568.398 193.929 571.412C190.074 573.945 185.463 575.068 180.875 574.59C175.415 574.022 170.013 570.005 159.21 561.97L109.5 525L270.33 212.87Z" fill="#3668CA"/>
<rect x="667.461" y="208.237" width="90" height="504" rx="20" fill="black"/>
<rect x="418.461" y="208.237" width="90" height="504" rx="20" fill="url(#paint0_linear_112_31)"/>
<path d="M129.461 612.237C118.415 612.237 109.461 603.282 109.461 592.237L109.461 525.737C109.461 523.804 111.028 522.237 112.961 522.237L737.461 522.237C748.507 522.237 757.461 531.191 757.461 542.237L757.461 592.237C757.461 603.282 748.507 612.237 737.461 612.237L129.461 612.237Z" fill="url(#paint1_linear_112_31)"/>
<defs>
<linearGradient id="paint0_linear_112_31" x1="363.5" y1="208" x2="706.5" y2="208" gradientUnits="userSpaceOnUse">
<stop offset="0.283562" stop-color="#2A509C"/>
<stop offset="1" stop-color="#284C94"/>
</linearGradient>
<linearGradient id="paint1_linear_112_31" x1="109.461" y1="567.237" x2="757.461" y2="567.237" gradientUnits="userSpaceOnUse">
<stop offset="0.44909" stop-color="#3668CA"/>
<stop offset="0.900002"/>
</linearGradient>
</defs>
</svg>
